<mxfile host="app.diagrams.net" modified="2022-10-27T04:43:41.109Z" agent="5.0 (Windows NT 10.0; Win64; x64) AppleWebKit/537.36 (KHTML, like Gecko) Chrome/107.0.0.0 Safari/537.36" etag="U0ptKri0vtoRI-F3k0Oh" version="20.5.1" type="github">
  <diagram id="cy5z1neatCGp0OOStVhH" name="Page-1">
    <mxGraphModel dx="782" dy="403" grid="1" gridSize="10" guides="1" tooltips="1" connect="1" arrows="1" fold="1" page="1" pageScale="1" pageWidth="850" pageHeight="1100" math="0" shadow="0">
      <root>
        <mxCell id="0" />
        <mxCell id="1" parent="0" />
        <mxCell id="rMsxLiq1xiMQE6kyZHGq-1" value="&lt;p style=&quot;margin:0px;margin-top:4px;text-align:center;&quot;&gt;&lt;b&gt;pembeli&lt;/b&gt;&lt;/p&gt;&lt;hr size=&quot;1&quot;&gt;&lt;p style=&quot;margin:0px;margin-left:4px;&quot;&gt;+ no_antri: int&lt;/p&gt;&lt;p style=&quot;margin:0px;margin-left:4px;&quot;&gt;+ kode_obat: int&lt;/p&gt;&lt;p style=&quot;margin:0px;margin-left:4px;&quot;&gt;+ total_biaya: int&lt;/p&gt;&lt;hr size=&quot;1&quot;&gt;&lt;p style=&quot;margin:0px;margin-left:4px;&quot;&gt;+ permintaanObat(): void&lt;/p&gt;&lt;p style=&quot;margin:0px;margin-left:4px;&quot;&gt;+ pambayaran(): void&lt;/p&gt;" style="verticalAlign=top;align=left;overflow=fill;fontSize=12;fontFamily=Helvetica;html=1;" parent="1" vertex="1">
          <mxGeometry x="60" y="90" width="160" height="140" as="geometry" />
        </mxCell>
        <mxCell id="rMsxLiq1xiMQE6kyZHGq-2" value="&lt;p style=&quot;margin:0px;margin-top:4px;text-align:center;&quot;&gt;&lt;b&gt;pembayaran&lt;/b&gt;&lt;/p&gt;&lt;hr size=&quot;1&quot;&gt;&lt;p style=&quot;margin:0px;margin-left:4px;&quot;&gt;+ nama_obat: char&lt;/p&gt;&lt;p style=&quot;margin:0px;margin-left:4px;&quot;&gt;+ kode_obat: int&lt;/p&gt;&lt;p style=&quot;margin:0px;margin-left:4px;&quot;&gt;+ total_ biaya: int&lt;/p&gt;&lt;hr size=&quot;1&quot;&gt;&lt;p style=&quot;margin:0px;margin-left:4px;&quot;&gt;&lt;br&gt;&lt;/p&gt;" style="verticalAlign=top;align=left;overflow=fill;fontSize=12;fontFamily=Helvetica;html=1;" parent="1" vertex="1">
          <mxGeometry x="310" y="100" width="160" height="80" as="geometry" />
        </mxCell>
        <mxCell id="rMsxLiq1xiMQE6kyZHGq-3" value="&lt;p style=&quot;margin:0px;margin-top:4px;text-align:center;&quot;&gt;&lt;b&gt;kasir&lt;/b&gt;&lt;/p&gt;&lt;hr size=&quot;1&quot;&gt;&lt;p style=&quot;margin:0px;margin-left:4px;&quot;&gt;+ kode_kasir: int&lt;/p&gt;&lt;p style=&quot;margin:0px;margin-left:4px;&quot;&gt;+ nama_kasir: char&lt;/p&gt;&lt;p style=&quot;margin:0px;margin-left:4px;&quot;&gt;+ username: char&lt;/p&gt;&lt;p style=&quot;margin:0px;margin-left:4px;&quot;&gt;+ password: char&lt;/p&gt;&lt;hr size=&quot;1&quot;&gt;&lt;p style=&quot;margin:0px;margin-left:4px;&quot;&gt;+ inputDataObat(): void&lt;/p&gt;&lt;p style=&quot;margin:0px;margin-left:4px;&quot;&gt;+ cekDataObat(): void&lt;/p&gt;&lt;p style=&quot;margin:0px;margin-left:4px;&quot;&gt;+ pembayaran(): void&lt;/p&gt;&lt;p style=&quot;margin:0px;margin-left:4px;&quot;&gt;+ laporan(): void&lt;/p&gt;" style="verticalAlign=top;align=left;overflow=fill;fontSize=12;fontFamily=Helvetica;html=1;" parent="1" vertex="1">
          <mxGeometry x="550" y="90" width="160" height="180" as="geometry" />
        </mxCell>
        <mxCell id="rMsxLiq1xiMQE6kyZHGq-4" value="&lt;p style=&quot;margin:0px;margin-top:4px;text-align:center;&quot;&gt;&lt;b&gt;input data obat&lt;/b&gt;&lt;/p&gt;&lt;hr size=&quot;1&quot;&gt;&lt;p style=&quot;margin:0px;margin-left:4px;&quot;&gt;+ kode_obat: int&lt;/p&gt;&lt;p style=&quot;margin:0px;margin-left:4px;&quot;&gt;+ nama_obat: char&lt;/p&gt;&lt;p style=&quot;margin:0px;margin-left:4px;&quot;&gt;+ harga_obat: int&lt;/p&gt;&lt;hr size=&quot;1&quot;&gt;&lt;p style=&quot;margin:0px;margin-left:4px;&quot;&gt;+ simpanDataObat(): void&lt;/p&gt;&lt;p style=&quot;margin:0px;margin-left:4px;&quot;&gt;+ perbarui(): void&lt;/p&gt;" style="verticalAlign=top;align=left;overflow=fill;fontSize=12;fontFamily=Helvetica;html=1;" parent="1" vertex="1">
          <mxGeometry x="790" y="90" width="170" height="130" as="geometry" />
        </mxCell>
        <mxCell id="rMsxLiq1xiMQE6kyZHGq-5" value="dispatch" style="html=1;verticalAlign=bottom;endArrow=block;rounded=0;entryX=0;entryY=0.5;entryDx=0;entryDy=0;" parent="1" target="rMsxLiq1xiMQE6kyZHGq-2" edge="1">
          <mxGeometry width="80" relative="1" as="geometry">
            <mxPoint x="220" y="139.5" as="sourcePoint" />
            <mxPoint x="300" y="139.5" as="targetPoint" />
          </mxGeometry>
        </mxCell>
        <mxCell id="rMsxLiq1xiMQE6kyZHGq-6" value="dispatch" style="html=1;verticalAlign=bottom;endArrow=block;rounded=0;" parent="1" edge="1">
          <mxGeometry width="80" relative="1" as="geometry">
            <mxPoint x="470" y="130" as="sourcePoint" />
            <mxPoint x="550" y="130" as="targetPoint" />
          </mxGeometry>
        </mxCell>
        <mxCell id="rMsxLiq1xiMQE6kyZHGq-7" value="dispatch" style="html=1;verticalAlign=bottom;endArrow=block;rounded=0;" parent="1" edge="1">
          <mxGeometry width="80" relative="1" as="geometry">
            <mxPoint x="710" y="130" as="sourcePoint" />
            <mxPoint x="790" y="130" as="targetPoint" />
          </mxGeometry>
        </mxCell>
        <mxCell id="rMsxLiq1xiMQE6kyZHGq-9" value="&lt;p style=&quot;margin:0px;margin-top:4px;text-align:center;&quot;&gt;&lt;b&gt;faktur&lt;/b&gt;&lt;/p&gt;&lt;hr size=&quot;1&quot;&gt;&lt;p style=&quot;margin:0px;margin-left:4px;&quot;&gt;+ no_pembelian: int&lt;/p&gt;&lt;p style=&quot;margin:0px;margin-left:4px;&quot;&gt;+ nama_obat: char&lt;/p&gt;&lt;p style=&quot;margin:0px;margin-left:4px;&quot;&gt;+ harga_obat: int&lt;/p&gt;&lt;p style=&quot;margin:0px;margin-left:4px;&quot;&gt;+ total_biaya: int&lt;/p&gt;&lt;hr size=&quot;1&quot;&gt;&lt;p style=&quot;margin:0px;margin-left:4px;&quot;&gt;+ cekFaktur(): void&lt;/p&gt;" style="verticalAlign=top;align=left;overflow=fill;fontSize=12;fontFamily=Helvetica;html=1;" parent="1" vertex="1">
          <mxGeometry x="310" y="220" width="160" height="130" as="geometry" />
        </mxCell>
        <mxCell id="rMsxLiq1xiMQE6kyZHGq-12" value="&lt;p style=&quot;margin:0px;margin-top:4px;text-align:center;&quot;&gt;&lt;b&gt;resep&lt;/b&gt;&lt;/p&gt;&lt;hr size=&quot;1&quot;&gt;&lt;p style=&quot;margin:0px;margin-left:4px;&quot;&gt;+ kode_obat: int&lt;/p&gt;&lt;p style=&quot;margin:0px;margin-left:4px;&quot;&gt;+ nama_obat: char&lt;/p&gt;&lt;hr size=&quot;1&quot;&gt;&lt;p style=&quot;margin:0px;margin-left:4px;&quot;&gt;+ permintaanObat(): void&lt;/p&gt;" style="verticalAlign=top;align=left;overflow=fill;fontSize=12;fontFamily=Helvetica;html=1;" parent="1" vertex="1">
          <mxGeometry x="220" y="390" width="160" height="90" as="geometry" />
        </mxCell>
        <mxCell id="rMsxLiq1xiMQE6kyZHGq-14" value="dispatch" style="html=1;verticalAlign=bottom;endArrow=block;rounded=0;entryX=1;entryY=0.5;entryDx=0;entryDy=0;exitX=-0.008;exitY=0.61;exitDx=0;exitDy=0;exitPerimeter=0;" parent="1" source="rMsxLiq1xiMQE6kyZHGq-9" target="rMsxLiq1xiMQE6kyZHGq-1" edge="1">
          <mxGeometry width="80" relative="1" as="geometry">
            <mxPoint x="280" y="320" as="sourcePoint" />
            <mxPoint x="360" y="320" as="targetPoint" />
          </mxGeometry>
        </mxCell>
        <mxCell id="rMsxLiq1xiMQE6kyZHGq-15" value="dispatch" style="html=1;verticalAlign=bottom;endArrow=block;rounded=0;exitX=-0.017;exitY=0.359;exitDx=0;exitDy=0;exitPerimeter=0;entryX=1;entryY=0.5;entryDx=0;entryDy=0;" parent="1" source="rMsxLiq1xiMQE6kyZHGq-3" target="rMsxLiq1xiMQE6kyZHGq-9" edge="1">
          <mxGeometry width="80" relative="1" as="geometry">
            <mxPoint x="280" y="320" as="sourcePoint" />
            <mxPoint x="360" y="320" as="targetPoint" />
          </mxGeometry>
        </mxCell>
        <mxCell id="rMsxLiq1xiMQE6kyZHGq-16" value="dispatch" style="html=1;verticalAlign=bottom;endArrow=block;rounded=0;exitX=1;exitY=0.75;exitDx=0;exitDy=0;entryX=0.196;entryY=-0.015;entryDx=0;entryDy=0;entryPerimeter=0;" parent="1" source="rMsxLiq1xiMQE6kyZHGq-1" target="rMsxLiq1xiMQE6kyZHGq-12" edge="1">
          <mxGeometry width="80" relative="1" as="geometry">
            <mxPoint x="280" y="320" as="sourcePoint" />
            <mxPoint x="360" y="320" as="targetPoint" />
          </mxGeometry>
        </mxCell>
        <mxCell id="rMsxLiq1xiMQE6kyZHGq-17" value="&lt;p style=&quot;margin:0px;margin-top:4px;text-align:center;&quot;&gt;&lt;b&gt;tanpa resep&lt;/b&gt;&lt;/p&gt;&lt;hr size=&quot;1&quot;&gt;&lt;p style=&quot;margin:0px;margin-left:4px;&quot;&gt;+ nama_obat: char&lt;/p&gt;&lt;hr size=&quot;1&quot;&gt;&lt;p style=&quot;margin:0px;margin-left:4px;&quot;&gt;+ keluhanPembeli(): void&lt;/p&gt;" style="verticalAlign=top;align=left;overflow=fill;fontSize=12;fontFamily=Helvetica;html=1;" parent="1" vertex="1">
          <mxGeometry x="40" y="480" width="160" height="90" as="geometry" />
        </mxCell>
        <mxCell id="rMsxLiq1xiMQE6kyZHGq-18" value="dispatch" style="html=1;verticalAlign=bottom;endArrow=block;rounded=0;exitX=0.442;exitY=1.005;exitDx=0;exitDy=0;exitPerimeter=0;entryX=0.567;entryY=-0.037;entryDx=0;entryDy=0;entryPerimeter=0;" parent="1" source="rMsxLiq1xiMQE6kyZHGq-1" target="rMsxLiq1xiMQE6kyZHGq-17" edge="1">
          <mxGeometry width="80" relative="1" as="geometry">
            <mxPoint x="280" y="320" as="sourcePoint" />
            <mxPoint x="360" y="320" as="targetPoint" />
          </mxGeometry>
        </mxCell>
        <mxCell id="rMsxLiq1xiMQE6kyZHGq-19" value="&lt;p style=&quot;margin:0px;margin-top:4px;text-align:center;&quot;&gt;&lt;b&gt;cek data obat&lt;/b&gt;&lt;/p&gt;&lt;hr size=&quot;1&quot;&gt;&lt;p style=&quot;margin:0px;margin-left:4px;&quot;&gt;+ kode_obat: int&lt;/p&gt;&lt;p style=&quot;margin:0px;margin-left:4px;&quot;&gt;+ nama_obat: char&lt;/p&gt;&lt;p style=&quot;margin:0px;margin-left:4px;&quot;&gt;+ harga_obat: int&lt;/p&gt;&lt;hr size=&quot;1&quot;&gt;&lt;p style=&quot;margin:0px;margin-left:4px;&quot;&gt;+ inputDataObat(): void&lt;/p&gt;&lt;p style=&quot;margin:0px;margin-left:4px;&quot;&gt;+ cekDataObat(): void&lt;/p&gt;" style="verticalAlign=top;align=left;overflow=fill;fontSize=12;fontFamily=Helvetica;html=1;" parent="1" vertex="1">
          <mxGeometry x="440" y="390" width="160" height="130" as="geometry" />
        </mxCell>
        <mxCell id="rMsxLiq1xiMQE6kyZHGq-20" value="dispatch" style="html=1;verticalAlign=bottom;endArrow=block;rounded=0;exitX=1;exitY=0.5;exitDx=0;exitDy=0;entryX=0.008;entryY=0.344;entryDx=0;entryDy=0;entryPerimeter=0;" parent="1" source="rMsxLiq1xiMQE6kyZHGq-12" target="rMsxLiq1xiMQE6kyZHGq-19" edge="1">
          <mxGeometry width="80" relative="1" as="geometry">
            <mxPoint x="330" y="460" as="sourcePoint" />
            <mxPoint x="410" y="460" as="targetPoint" />
          </mxGeometry>
        </mxCell>
        <mxCell id="rMsxLiq1xiMQE6kyZHGq-21" value="dispatch" style="html=1;verticalAlign=bottom;endArrow=block;rounded=0;exitX=1.013;exitY=0.644;exitDx=0;exitDy=0;exitPerimeter=0;entryX=-0.008;entryY=0.677;entryDx=0;entryDy=0;entryPerimeter=0;" parent="1" source="rMsxLiq1xiMQE6kyZHGq-17" target="rMsxLiq1xiMQE6kyZHGq-19" edge="1">
          <mxGeometry width="80" relative="1" as="geometry">
            <mxPoint x="330" y="460" as="sourcePoint" />
            <mxPoint x="410" y="460" as="targetPoint" />
          </mxGeometry>
        </mxCell>
        <mxCell id="rMsxLiq1xiMQE6kyZHGq-22" value="&lt;p style=&quot;margin:0px;margin-top:4px;text-align:center;&quot;&gt;&lt;b&gt;pemilik&lt;/b&gt;&lt;/p&gt;&lt;hr size=&quot;1&quot;&gt;&lt;p style=&quot;margin:0px;margin-left:4px;&quot;&gt;+ nama_pemilik: char&lt;/p&gt;&lt;p style=&quot;margin:0px;margin-left:4px;&quot;&gt;+ usename: char&lt;/p&gt;&lt;p style=&quot;margin:0px;margin-left:4px;&quot;&gt;+ password: char&lt;/p&gt;&lt;hr size=&quot;1&quot;&gt;&lt;p style=&quot;margin:0px;margin-left:4px;&quot;&gt;+ cekDataObat(): void&lt;/p&gt;&lt;p style=&quot;margin:0px;margin-left:4px;&quot;&gt;+ menerimaLaporan(): void&lt;/p&gt;" style="verticalAlign=top;align=left;overflow=fill;fontSize=12;fontFamily=Helvetica;html=1;" parent="1" vertex="1">
          <mxGeometry x="660" y="390" width="160" height="140" as="geometry" />
        </mxCell>
        <mxCell id="rMsxLiq1xiMQE6kyZHGq-23" value="dispatch" style="html=1;verticalAlign=bottom;endArrow=block;rounded=0;exitX=-0.008;exitY=0.452;exitDx=0;exitDy=0;entryX=1;entryY=0.5;entryDx=0;entryDy=0;exitPerimeter=0;" parent="1" source="rMsxLiq1xiMQE6kyZHGq-22" target="rMsxLiq1xiMQE6kyZHGq-19" edge="1">
          <mxGeometry width="80" relative="1" as="geometry">
            <mxPoint x="550" y="460" as="sourcePoint" />
            <mxPoint x="630" y="460" as="targetPoint" />
          </mxGeometry>
        </mxCell>
        <mxCell id="rMsxLiq1xiMQE6kyZHGq-24" value="&lt;p style=&quot;margin:0px;margin-top:4px;text-align:center;&quot;&gt;&lt;b&gt;laporan&lt;/b&gt;&lt;/p&gt;&lt;hr size=&quot;1&quot;&gt;&lt;p style=&quot;margin:0px;margin-left:4px;&quot;&gt;+ laporan_data_obat: char&lt;/p&gt;&lt;p style=&quot;margin:0px;margin-left:4px;&quot;&gt;+ laporan_penjualan: char&lt;/p&gt;&lt;hr size=&quot;1&quot;&gt;&lt;p style=&quot;margin:0px;margin-left:4px;&quot;&gt;+ dibuat(): void&lt;/p&gt;&lt;p style=&quot;margin:0px;margin-left:4px;&quot;&gt;+ dicetak(): void&lt;/p&gt;" style="verticalAlign=top;align=left;overflow=fill;fontSize=12;fontFamily=Helvetica;html=1;" parent="1" vertex="1">
          <mxGeometry x="910" y="290" width="160" height="120" as="geometry" />
        </mxCell>
        <mxCell id="rMsxLiq1xiMQE6kyZHGq-25" value="dispatch" style="html=1;verticalAlign=bottom;endArrow=block;rounded=0;exitX=1;exitY=0.5;exitDx=0;exitDy=0;entryX=0;entryY=0.5;entryDx=0;entryDy=0;" parent="1" source="rMsxLiq1xiMQE6kyZHGq-3" target="rMsxLiq1xiMQE6kyZHGq-24" edge="1">
          <mxGeometry width="80" relative="1" as="geometry">
            <mxPoint x="620" y="290" as="sourcePoint" />
            <mxPoint x="700" y="290" as="targetPoint" />
          </mxGeometry>
        </mxCell>
        <mxCell id="rMsxLiq1xiMQE6kyZHGq-26" value="dispatch" style="html=1;verticalAlign=bottom;endArrow=block;rounded=0;exitX=-0.021;exitY=0.578;exitDx=0;exitDy=0;exitPerimeter=0;entryX=1.033;entryY=0.314;entryDx=0;entryDy=0;entryPerimeter=0;" parent="1" source="rMsxLiq1xiMQE6kyZHGq-24" target="rMsxLiq1xiMQE6kyZHGq-22" edge="1">
          <mxGeometry width="80" relative="1" as="geometry">
            <mxPoint x="620" y="290" as="sourcePoint" />
            <mxPoint x="700" y="290" as="targetPoint" />
          </mxGeometry>
        </mxCell>
      </root>
    </mxGraphModel>
  </diagram>
</mxfile>
